<?xml version="1.0" standalone="no"?>
<!DOCTYPE svg PUBLIC "-//W3C//DTD SVG 20010904//EN"
 "http://www.w3.org/TR/2001/REC-SVG-20010904/DTD/svg10.dtd">
<svg version="1.0" xmlns="http://www.w3.org/2000/svg"
 width="512.000000pt" height="512.000000pt" viewBox="0 0 512.000000 512.000000"
 preserveAspectRatio="xMidYMid meet">

<g transform="translate(0.000000,512.000000) scale(0.100000,-0.100000)"
fill="#CD60C2" stroke="none">
<path d="M2450 4789 c-130 -25 -279 -139 -340 -259 -64 -126 -60 2 -60 -1971
0 -1624 2 -1811 16 -1860 79 -270 344 -427 613 -364 179 43 329 190 376 370
13 52 15 275 15 1855 0 1580 -2 1803 -15 1855 -69 264 -332 427 -605 374z"/>
<path d="M960 3866 c-185 -51 -335 -214 -369 -400 -8 -41 -11 -478 -11 -1370
0 -1121 2 -1320 15 -1374 41 -173 168 -316 331 -372 295 -102 617 87 673 394
8 41 11 463 11 1360 0 1432 2 1378 -62 1505 -59 117 -191 222 -322 257 -63 17
-205 17 -266 0z"/>
<path d="M3870 2437 c-164 -56 -271 -160 -332 -323 -22 -58 -23 -65 -26 -691
-3 -694 -2 -703 57 -821 34 -68 106 -151 167 -193 101 -69 258 -103 379 -80
207 39 380 213 415 419 7 46 10 259 8 682 -3 614 -3 615 -26 680 -59 164 -186
285 -351 334 -81 24 -211 21 -291 -7z"/>
</g>
</svg>
