<?xml version="1.0" standalone="no"?>
<!DOCTYPE svg PUBLIC "-//W3C//DTD SVG 20010904//EN"
 "http://www.w3.org/TR/2001/REC-SVG-20010904/DTD/svg10.dtd">
<svg version="1.0" xmlns="http://www.w3.org/2000/svg"
 width="512.000000pt" height="512.000000pt" viewBox="0 0 512.000000 512.000000"
 preserveAspectRatio="xMidYMid meet">

<g transform="translate(0.000000,512.000000) scale(0.100000,-0.100000)"
fill="#CD60C2" stroke="none">
<path d="M2708 4896 c-20 -7 -48 -22 -61 -32 -14 -10 -452 -532 -973 -1159
-521 -627 -975 -1170 -1009 -1207 -34 -37 -77 -95 -95 -129 -29 -55 -33 -73
-33 -134 0 -95 29 -160 99 -224 99 -90 45 -85 917 -89 l767 -3 0 -22 c0 -12
-43 -346 -94 -743 -66 -501 -92 -731 -87 -755 18 -80 75 -148 148 -175 36 -14
52 -15 100 -5 31 6 69 21 84 33 16 13 454 536 975 1163 521 627 976 1171 1010
1209 35 38 77 96 95 130 29 53 33 70 33 131 -1 126 -78 241 -194 288 l-55 22
-767 3 -768 3 0 22 c0 12 43 346 94 743 66 501 92 731 87 755 -16 68 -65 135
-121 164 -41 21 -111 26 -152 11z m-279 -1412 c-35 -258 -63 -494 -63 -526 -1
-47 4 -63 29 -99 17 -24 46 -52 65 -64 34 -20 52 -20 779 -25 l743 -5 -673
-811 c-390 -469 -675 -804 -677 -795 -1 9 25 225 59 481 35 256 63 490 63 522
1 47 -4 63 -29 99 -17 24 -46 52 -65 64 -34 20 -50 20 -798 23 -420 1 -762 6
-760 11 9 24 1383 1615 1386 1605 2 -6 -25 -222 -59 -480z"/>
</g>
</svg>
